<svg width="25" height="25" viewBox="0 0 25 25" fill="none" xmlns="http://www.w3.org/2000/svg">
<path fill-rule="evenodd" clip-rule="evenodd" d="M24.6465 1.95566L23.3373 0.646484L20.6262 3.35756C19.8041 2.67911 18.7806 2.30975 17.7016 2.30975C16.4722 2.30975 15.3151 2.789 14.4458 3.65833L10.7406 7.36362L17.9293 14.5524L21.6346 10.8472C23.3235 9.15832 23.4232 6.47417 21.935 4.66713L24.6465 1.95566ZM13.3589 7.36362L15.755 4.96751C16.2753 4.44725 16.9658 4.16121 17.7016 4.16121C18.4374 4.16121 19.1279 4.44725 19.6482 4.96751L20.3255 5.64479C21.3986 6.71801 21.3986 8.46477 20.3255 9.53799L17.9293 11.9341L13.3589 7.36362Z" fill="#808080"/>
<path fill-rule="evenodd" clip-rule="evenodd" d="M11.9566 11.6131L10.6474 10.304L8.78721 12.1642L7.36358 10.7405L3.65828 14.4458C1.96943 16.1346 1.86968 18.8187 3.35791 20.6258L0.646484 23.3373L1.95566 24.6465L4.66673 21.9354C5.48887 22.6139 6.51233 22.9832 7.59139 22.9832C8.8208 22.9832 9.97783 22.504 10.8472 21.6346L14.5524 17.9293L13.1288 16.5057L14.989 14.6455L13.6798 13.3364L11.8196 15.1966L10.0964 13.4733L11.9566 11.6131ZM4.9675 15.7549L7.36362 13.3589L11.9341 17.9293L9.53799 20.3255C9.01769 20.8457 8.32718 21.1318 7.59139 21.1318C6.85559 21.1318 6.16509 20.8457 5.64478 20.3255L4.9675 19.6481C3.89433 18.5749 3.89433 16.8282 4.9675 15.7549Z" fill="#808080"/>
</svg>