<svg width="24" height="24" viewBox="0 0 16 16" fill="none" xmlns="http://www.w3.org/2000/svg">
<path d="M15.3751 7.375H4.5083C4.16311 7.375 3.8833 7.65481 3.8833 8C3.8833 8.34519 4.16311 8.625 4.5083 8.625H15.3751C15.7203 8.625 16.0001 8.34519 16.0001 8C16.0001 7.65481 15.7203 7.375 15.3751 7.375Z" fill="#7147E8"/>
<path d="M15.3751 2.6875H4.5083C4.16311 2.6875 3.8833 2.96731 3.8833 3.3125C3.8833 3.65769 4.16311 3.9375 4.5083 3.9375H15.3751C15.7203 3.9375 16.0001 3.65769 16.0001 3.3125C16.0001 2.96731 15.7203 2.6875 15.3751 2.6875Z" fill="#7147E8"/>
<path d="M15.3751 12.0625H4.5083C4.16311 12.0625 3.8833 12.3423 3.8833 12.6875C3.8833 13.0327 4.16311 13.3125 4.5083 13.3125H15.3751C15.7203 13.3125 16.0001 13.0327 16.0001 12.6875C16.0001 12.3423 15.7203 12.0625 15.3751 12.0625Z" fill="#7147E8"/>
<path d="M0.84375 4.15625C1.30974 4.15625 1.6875 3.77849 1.6875 3.3125C1.6875 2.84651 1.30974 2.46875 0.84375 2.46875C0.37776 2.46875 0 2.84651 0 3.3125C0 3.77849 0.37776 4.15625 0.84375 4.15625Z" fill="#7147E8"/>
<path d="M0.84375 8.84375C1.30974 8.84375 1.6875 8.46599 1.6875 8C1.6875 7.53401 1.30974 7.15625 0.84375 7.15625C0.37776 7.15625 0 7.53401 0 8C0 8.46599 0.37776 8.84375 0.84375 8.84375Z" fill="#7147E8"/>
<path d="M0.84375 13.5312C1.30974 13.5312 1.6875 13.1535 1.6875 12.6875C1.6875 12.2215 1.30974 11.8438 0.84375 11.8438C0.37776 11.8438 0 12.2215 0 12.6875C0 13.1535 0.37776 13.5312 0.84375 13.5312Z" fill="#7147E8"/>
</svg>
