<svg width="36" height="36" viewBox="0 0 16 16" fill="none" xmlns="http://www.w3.org/2000/svg">
<path d="M13.7768 3.24556C13.5751 3.04346 13.2477 3.04312 13.046 3.2447L6.84525 9.42904L4.60805 6.99923C4.41474 6.78939 4.0879 6.77578 3.87771 6.96907C3.66769 7.16238 3.65424 7.48938 3.84755 7.69941L6.44914 10.5248C6.54442 10.6283 6.67776 10.6885 6.81836 10.6914C6.82213 10.6916 6.82578 10.6916 6.82939 10.6916C6.96603 10.6916 7.09747 10.6373 7.1943 10.5408L13.7758 3.97657C13.9781 3.77501 13.9784 3.44766 13.7768 3.24556Z" fill="#1890FF"/>
<path d="M10.2855 2.55827C9.39754 2.09196 8.38661 1.82812 7.31406 1.82812C3.77944 1.82812 0.914062 4.6935 0.914062 8.22813C0.914062 11.7627 3.77944 14.6281 7.31406 14.6281C8.67114 14.6281 9.92957 14.2057 10.9651 13.4853" stroke="#1890FF" stroke-linecap="round"/>
<path d="M12.4982 12.0604C12.4982 12.1428 12.5314 12.2172 12.5854 12.2712C12.639 12.3248 12.713 12.3581 12.795 12.3585C12.9592 12.3587 13.0925 12.2258 13.0932 12.0616L13.0974 10.1984L14.9605 10.2031C15.1247 10.2033 15.258 10.0704 15.2587 9.9062C15.2587 9.74179 15.1262 9.6085 14.9618 9.60807L13.0986 9.60387L13.1032 7.7407C13.1032 7.57629 12.9708 7.44299 12.8064 7.44257C12.6422 7.44236 12.5089 7.57523 12.5083 7.73943L12.504 9.60261L10.6409 9.59798C10.4767 9.59777 10.3434 9.73065 10.3428 9.89485C10.3428 10.0588 10.4752 10.1921 10.6396 10.193L12.5028 10.1972L12.4982 12.0604Z" fill="#1890FF" stroke="#1890FF" stroke-width="0.35"/>
</svg>
