<svg width="36" height="36" viewBox="0 0 16 16" fill="none" xmlns="http://www.w3.org/2000/svg">
<path d="M13.625 13.1875C13.175 13.1875 12.774 13.4002 12.5164 13.7301L11.2812 13.3184V10.3438H12.2188C13.2197 10.3438 14.1658 9.95403 14.8827 9.24641C15.6032 8.53525 16 7.59319 16 6.59375C16 4.52506 14.29 2.84375 12.2188 2.84375C11.9318 2.84375 11.6498 2.87591 11.3767 2.93825C11.0595 2.16956 10.5409 1.48353 9.88456 0.973406C9.06509 0.336594 8.08925 0 7.0625 0C5.81316 0 4.63591 0.494219 3.74759 1.39159C2.86247 2.28578 2.375 3.46741 2.375 4.71875C2.375 4.73166 2.37516 4.74447 2.37541 4.75719C1.05156 4.97675 0 6.12816 0 7.53125C0 9.08362 1.29066 10.3438 2.84375 10.3438H4.71875V13.3184L3.48359 13.7301C3.22603 13.4002 2.825 13.1875 2.375 13.1875C1.59959 13.1875 0.96875 13.8183 0.96875 14.5938C0.96875 15.3692 1.59959 16 2.375 16C3.14184 16 3.76687 15.3829 3.78059 14.6193L5.33572 14.1009C5.52712 14.0371 5.65625 13.858 5.65625 13.6562V10.3438H7.53125V13.2681C6.98566 13.4616 6.59375 13.9827 6.59375 14.5938C6.59375 15.3692 7.22459 16 8 16C8.77541 16 9.40625 15.3692 9.40625 14.5938C9.40625 13.9827 9.01434 13.4616 8.46875 13.2681V10.3438H10.3438V13.6562C10.3438 13.858 10.4729 14.0371 10.6643 14.1009L12.2194 14.6193C12.2331 15.3829 12.8582 16 13.625 16C14.4004 16 15.0312 15.3692 15.0312 14.5938C15.0312 13.8183 14.4004 13.1875 13.625 13.1875ZM2.375 15.0625C2.11653 15.0625 1.90625 14.8522 1.90625 14.5938C1.90625 14.3353 2.11653 14.125 2.375 14.125C2.63347 14.125 2.84375 14.3353 2.84375 14.5938C2.84375 14.8522 2.63347 15.0625 2.375 15.0625ZM8 15.0625C7.74153 15.0625 7.53125 14.8522 7.53125 14.5938C7.53125 14.3353 7.74153 14.125 8 14.125C8.25847 14.125 8.46875 14.3353 8.46875 14.5938C8.46875 14.8522 8.25847 15.0625 8 15.0625ZM2.84375 9.40625C1.81047 9.40625 0.9375 8.54759 0.9375 7.53125C0.9375 5.90031 2.98384 5.01972 4.16959 6.20544C4.35266 6.3885 4.64944 6.3885 4.8325 6.20544C5.01556 6.02238 5.01556 5.72559 4.8325 5.54253C4.41384 5.12391 3.88628 4.85425 3.31387 4.75847C3.31331 4.74516 3.31253 4.73166 3.31253 4.71878C3.31253 2.63381 4.99478 0.937531 7.06253 0.937531C8.55297 0.937531 9.91031 1.87466 10.4958 3.26128C10.1574 3.43669 9.84434 3.66491 9.56713 3.94213C9.38406 4.12519 9.38406 4.42197 9.56713 4.60503C9.75016 4.78809 10.047 4.78809 10.23 4.60503C10.4986 4.33647 10.812 4.12919 11.1532 3.98959C11.2843 3.97125 11.6458 3.78125 12.2188 3.78125C13.7868 3.78125 15.0625 5.04294 15.0625 6.59375C15.0625 8.14456 13.7868 9.40625 12.2188 9.40625H2.84375ZM13.625 15.0625C13.3665 15.0625 13.1562 14.8522 13.1562 14.5938C13.1562 14.3353 13.3665 14.125 13.625 14.125C13.8835 14.125 14.0938 14.3353 14.0938 14.5938C14.0938 14.8522 13.8835 15.0625 13.625 15.0625Z" fill="#008376"/>
</svg>
