<svg width="16" height="16" viewBox="0 0 16 16" fill="none" xmlns="http://www.w3.org/2000/svg">
<path d="M14.5938 0.03125H1.40625C0.630844 0.03125 0 0.662094 0 1.4375V14.5625C0 15.3379 0.630844 15.9688 1.40625 15.9688H14.5938C15.3692 15.9688 16 15.3379 16 14.5625V1.4375C16 0.662094 15.3692 0.03125 14.5938 0.03125ZM1.40625 0.96875H14.5938C14.8522 0.96875 15.0625 1.17903 15.0625 1.4375V3.78125H0.9375V1.4375C0.9375 1.17903 1.14778 0.96875 1.40625 0.96875ZM14.5938 15.0312H1.40625C1.14778 15.0312 0.9375 14.821 0.9375 14.5625V4.71875H15.0625V14.5625C15.0625 14.821 14.8522 15.0312 14.5938 15.0312Z" fill="#7147E8"/>
<path d="M9.59103 6.16302C9.35309 6.06105 9.0775 6.17127 8.97553 6.4092L6.16303 12.9717C6.06103 13.2096 6.17128 13.4852 6.40922 13.5872C6.64725 13.6892 6.92278 13.5789 7.02472 13.341L9.83722 6.77852C9.93922 6.54055 9.82897 6.26499 9.59103 6.16302V6.16302Z" fill="#7147E8"/>
<path d="M5.55341 7.70718C5.39166 7.50502 5.09663 7.47227 4.89457 7.63399L2.55082 9.50899C2.31647 9.6964 2.31632 10.0535 2.55082 10.2411L4.89457 12.1161C5.09672 12.2778 5.39175 12.245 5.55341 12.0429C5.71513 11.8407 5.68238 11.5457 5.48019 11.384L3.594 9.87502L5.48019 8.36605C5.68238 8.20434 5.71513 7.90937 5.55341 7.70718V7.70718Z" fill="#7147E8"/>
<path d="M13.4491 9.509L11.1053 7.634C10.9032 7.47225 10.6082 7.50504 10.4465 7.70719C10.2848 7.90935 10.3175 8.20435 10.5197 8.36604L12.4059 9.87504L10.5197 11.384C10.3175 11.5457 10.2848 11.8407 10.4465 12.0428C10.6084 12.2452 10.9035 12.2776 11.1053 12.116L13.4491 10.241C13.6834 10.0536 13.6836 9.69657 13.4491 9.509Z" fill="#7147E8"/>
<path d="M2.375 2.84375C2.63388 2.84375 2.84375 2.63388 2.84375 2.375C2.84375 2.11612 2.63388 1.90625 2.375 1.90625C2.11612 1.90625 1.90625 2.11612 1.90625 2.375C1.90625 2.63388 2.11612 2.84375 2.375 2.84375Z" fill="#7147E8"/>
<path d="M4.25 2.84375C4.50888 2.84375 4.71875 2.63388 4.71875 2.375C4.71875 2.11612 4.50888 1.90625 4.25 1.90625C3.99112 1.90625 3.78125 2.11612 3.78125 2.375C3.78125 2.63388 3.99112 2.84375 4.25 2.84375Z" fill="#7147E8"/>
<path d="M6.125 2.84375C6.38388 2.84375 6.59375 2.63388 6.59375 2.375C6.59375 2.11612 6.38388 1.90625 6.125 1.90625C5.86612 1.90625 5.65625 2.11612 5.65625 2.375C5.65625 2.63388 5.86612 2.84375 6.125 2.84375Z" fill="#7147E8"/>
<path d="M10.8125 2.84375H13.625C13.8839 2.84375 14.0938 2.63388 14.0938 2.375C14.0938 2.11612 13.8839 1.90625 13.625 1.90625H10.8125C10.5536 1.90625 10.3438 2.11612 10.3438 2.375C10.3438 2.63388 10.5536 2.84375 10.8125 2.84375Z" fill="#7147E8"/>
</svg>
