<svg width="24" height="24" viewBox="0 0 16 16" fill="none" xmlns="http://www.w3.org/2000/svg">
<g clip-path="url(#clip0_12283_12434)">
<path d="M4.94383 4.59304C4.70344 4.35262 4.29331 4.44052 4.17353 4.75987L0.196274 15.3659C0.0553758 15.7416 0.423322 16.1105 0.799737 15.9693C1.33242 15.7696 10.9783 12.1524 11.4057 11.9921C11.7236 11.8729 11.8142 11.4634 11.5726 11.2218L4.94383 4.59304ZM4.79565 5.77062L6.72182 7.69679C6.85509 9.2986 7.44849 10.8385 8.41609 12.112L6.41099 12.8639C4.91121 11.3038 4.14582 9.12261 4.34968 6.9599L4.79565 5.77062ZM3.53192 13.9435C3.06954 13.4184 2.68497 12.8331 2.38527 12.1983L3.5172 9.17979C3.79834 10.7237 4.49176 12.1049 5.46436 13.2188L3.53192 13.9435ZM1.94817 13.3639C2.14428 13.6881 2.36208 13.9981 2.60044 14.2929L1.4361 14.7295L1.94817 13.3639ZM9.33741 11.7665C8.63445 10.9112 8.12989 9.90522 7.85915 8.83413L10.3949 11.3699L9.33741 11.7665Z" fill="#7147E8"/>
<path d="M11.0567 8.75467C11.2398 8.93772 11.5365 8.93772 11.7196 8.75467C13.483 6.99127 15.2 7.53646 15.2172 7.54215C15.4628 7.62399 15.7282 7.49128 15.8101 7.2457C15.892 7.00018 15.7592 6.73467 15.5136 6.6528C15.4212 6.62202 13.2253 5.92325 11.0568 8.0918C10.8737 8.27482 10.8736 8.57165 11.0567 8.75467V8.75467Z" fill="#7147E8"/>
<path d="M7.41073 5.10883C7.59375 5.29188 7.89054 5.29191 8.07359 5.10883C10.2421 2.94031 9.54338 0.744376 9.5126 0.651944C9.43073 0.406366 9.16524 0.273592 8.9197 0.355494C8.67412 0.437364 8.54141 0.702816 8.62325 0.948395C8.62896 0.96555 9.17412 2.6826 7.41073 4.446C7.22767 4.62902 7.22767 4.92581 7.41073 5.10883Z" fill="#7147E8"/>
<path d="M9.06795 6.10318C8.8849 6.28623 8.8849 6.58299 9.06795 6.76604C9.24932 6.94744 9.54402 6.94981 9.72804 6.76882C9.97018 6.64818 10.7218 7.10071 11.1395 6.68317C11.5526 6.26995 11.1136 5.53365 11.2233 5.2756C11.4817 5.16567 12.2177 5.6049 12.6309 5.19173C13.0442 4.77851 12.6051 4.04221 12.7148 3.78413C12.9736 3.67417 13.7092 4.11345 14.1224 3.70026C14.5357 3.28704 14.0966 2.55074 14.2063 2.29266C14.4635 2.18326 15.201 2.62154 15.6139 2.20876C16.0314 1.79119 15.5797 1.03827 15.6995 0.797374C15.8798 0.614135 15.8788 0.319434 15.6967 0.137289C15.5137 -0.0457629 15.2169 -0.0457629 15.0338 0.137289C14.6644 0.506735 14.7367 1.0283 14.8063 1.40118C14.4334 1.33159 13.9118 1.25931 13.5424 1.62873C13.173 1.99818 13.2452 2.51974 13.3148 2.89262C12.9419 2.82306 12.4203 2.75072 12.0509 3.1202C11.6815 3.48965 11.7538 4.01121 11.8234 4.38409C11.4504 4.3145 10.9289 4.2422 10.5595 4.61164C10.19 4.98109 10.2623 5.50265 10.3319 5.87553C9.95899 5.80601 9.43734 5.73373 9.06795 6.10318V6.10318Z" fill="#7147E8"/>
<path d="M11.7196 2.12584C11.9026 1.94279 11.9026 1.64602 11.7196 1.46297C11.5365 1.27992 11.2398 1.27992 11.0567 1.46297C10.8737 1.64602 10.8737 1.94279 11.0567 2.12584C11.2397 2.30889 11.5365 2.30889 11.7196 2.12584Z" fill="#7147E8"/>
<path d="M14.7026 5.57758C14.9615 5.57758 15.1713 5.36773 15.1713 5.10886C15.1713 4.84999 14.9615 4.64014 14.7026 4.64014C14.4437 4.64014 14.2339 4.84999 14.2339 5.10886C14.2339 5.36773 14.4437 5.57758 14.7026 5.57758Z" fill="#7147E8"/>
<path d="M13.7081 9.41756C13.525 9.60061 13.525 9.89738 13.7081 10.0804C13.8911 10.2635 14.1879 10.2635 14.371 10.0804C14.554 9.89738 14.554 9.60061 14.371 9.41756C14.1879 9.23451 13.8911 9.23451 13.7081 9.41756Z" fill="#7147E8"/>
<path d="M7.07945 2.78868C7.2625 2.60563 7.2625 2.30887 7.07945 2.12581C6.8964 1.94276 6.59964 1.94276 6.41659 2.12581C6.23353 2.30883 6.23353 2.60563 6.41659 2.78868C6.59964 2.97173 6.89643 2.97173 7.07945 2.78868V2.78868Z" fill="#7147E8"/>
</g>
<defs>
<clipPath id="clip0_12283_12434">
<rect width="16" height="16" fill="white"/>
</clipPath>
</defs>
</svg>
