<svg width="36" height="36" viewBox="0 0 16 16" fill="none" xmlns="http://www.w3.org/2000/svg">
<g clip-path="url(#clip0_12122_21226)">
<path d="M8.00016 0C4.93766 0 2.44629 2.4915 2.44629 5.55394C2.44629 7.02894 2.94316 7.82741 3.46891 8.67288C4.07613 9.64906 4.76438 10.7555 4.99435 13.358C5.00536 13.4825 5.0626 13.5984 5.15478 13.6828C5.24697 13.7672 5.36743 13.814 5.49241 13.814H5.58704V14.6565C5.58744 15.0127 5.7291 15.3542 5.98095 15.606C6.2328 15.8579 6.57427 15.9996 6.93045 16H9.06988C9.42606 15.9996 9.76753 15.8579 10.0194 15.6061C10.2712 15.3542 10.4129 15.0127 10.4133 14.6566V13.814H10.5079C10.6329 13.814 10.7534 13.7672 10.8455 13.6828C10.9377 13.5984 10.995 13.4825 11.006 13.358C11.2359 10.7555 11.9242 9.64906 12.5314 8.67288C13.0573 7.82741 13.554 7.02881 13.554 5.55394C13.554 2.4915 11.0627 0 8.00016 0V0ZM10.0562 12.8139H5.94416C5.8877 12.3247 5.81441 11.886 5.72873 11.4893H10.2716C10.1859 11.886 10.1127 12.3247 10.0562 12.814V12.8139ZM9.41332 14.6565C9.41215 14.7472 9.37559 14.8339 9.31144 14.8981C9.24728 14.9622 9.16061 14.9988 9.06988 15H6.93045C6.83974 14.9988 6.75308 14.9622 6.68893 14.8981C6.62479 14.8339 6.58823 14.7473 6.58704 14.6566V13.814H9.41332V14.6565ZM11.6823 8.14469C11.3073 8.74741 10.8782 9.43741 10.5384 10.4893H5.46198C5.12204 9.4375 4.69295 8.74741 4.31804 8.14469C3.81195 7.33106 3.44616 6.74319 3.44616 5.55406C3.44629 3.04291 5.48913 1 8.00016 1C10.5112 1 12.554 3.04291 12.554 5.55394C12.554 6.74319 12.1884 7.33106 11.6823 8.14469Z" fill="#B02AAC"/>
</g>
<defs>
<clipPath id="clip0_12122_21226">
<rect width="16" height="16" fill="white"/>
</clipPath>
</defs>
</svg>
