<svg width="24" height="24" viewBox="0 0 16 16" fill="none" xmlns="http://www.w3.org/2000/svg">
<path d="M5.1471 15.1389C5.1471 15.2347 5.11006 15.3265 5.04413 15.3943C4.9782 15.462 4.88878 15.5 4.79554 15.5H2.52775C1.99014 15.4994 1.47473 15.2798 1.09458 14.8893C0.714436 14.4989 0.500605 13.9696 0.5 13.4175L0.5 11.291C0.5 11.1952 0.53704 11.1034 0.60297 11.0357C0.668901 10.968 0.758322 10.9299 0.851562 10.9299C0.944803 10.9299 1.03422 10.968 1.10015 11.0357C1.16609 11.1034 1.20312 11.1952 1.20312 11.291V13.4175C1.20352 13.7781 1.34321 14.1239 1.59153 14.379C1.83986 14.634 2.17656 14.7775 2.52775 14.7779H4.79554C4.88878 14.7779 4.9782 14.8159 5.04413 14.8836C5.11006 14.9514 5.1471 15.0432 5.1471 15.1389V15.1389ZM15.1484 10.9299C15.0552 10.9299 14.9658 10.968 14.8998 11.0357C14.8339 11.1034 14.7969 11.1952 14.7969 11.291V13.4175C14.7965 13.7781 14.6568 14.1239 14.4085 14.379C14.1601 14.634 13.8234 14.7775 13.4722 14.7779H11.2045C11.1113 14.7779 11.0218 14.8159 10.9559 14.8836C10.89 14.9514 10.8529 15.0432 10.8529 15.1389C10.8529 15.2347 10.89 15.3265 10.9559 15.3943C11.0218 15.462 11.1113 15.5 11.2045 15.5H13.4722C14.0099 15.4994 14.5253 15.2798 14.9054 14.8893C15.2856 14.4989 15.4994 13.9696 15.5 13.4175V11.291C15.5 11.1952 15.463 11.1034 15.397 11.0357C15.3311 10.968 15.2417 10.9299 15.1484 10.9299V10.9299ZM13.4722 0.5H11.2045C11.1113 0.5 11.0218 0.53804 10.9559 0.60575C10.89 0.673461 10.8529 0.765297 10.8529 0.861054C10.8529 0.956812 10.89 1.04865 10.9559 1.11636C11.0218 1.18407 11.1113 1.22211 11.2045 1.22211H13.4722C13.8234 1.22252 14.1601 1.36599 14.4085 1.62103C14.6568 1.87607 14.7965 2.22185 14.7969 2.58253V4.70899C14.7969 4.80475 14.8339 4.89658 14.8998 4.96429C14.9658 5.03201 15.0552 5.07004 15.1484 5.07004C15.2417 5.07004 15.3311 5.03201 15.397 4.96429C15.463 4.89658 15.5 4.80475 15.5 4.70899V2.58253C15.4994 2.03041 15.2856 1.50107 14.9054 1.11066C14.5253 0.720241 14.0099 0.500629 13.4722 0.5V0.5ZM0.851562 5.07004C0.944803 5.07004 1.03422 5.03201 1.10015 4.96429C1.16609 4.89658 1.20312 4.80475 1.20312 4.70899V2.58253C1.20352 2.22185 1.34321 1.87607 1.59153 1.62103C1.83986 1.36599 2.17656 1.22252 2.52775 1.22211H4.79554C4.88878 1.22211 4.9782 1.18407 5.04413 1.11636C5.11006 1.04865 5.1471 0.956812 5.1471 0.861054C5.1471 0.765297 5.11006 0.673461 5.04413 0.60575C4.9782 0.53804 4.88878 0.5 4.79554 0.5H2.52775C1.99014 0.500629 1.47473 0.720241 1.09458 1.11066C0.714436 1.50107 0.500605 2.03041 0.5 2.58253L0.5 4.70899C0.5 4.80475 0.53704 4.89658 0.60297 4.96429C0.668901 5.03201 0.758322 5.07004 0.851562 5.07004V5.07004ZM10.8179 12.2693H5.28075C4.94776 12.2689 4.62851 12.1329 4.39304 11.891C4.15758 11.6492 4.02514 11.3213 4.02477 10.9794V4.99534C4.02514 4.65335 4.15758 4.32548 4.39305 4.08366C4.62851 3.84184 4.94776 3.70582 5.28075 3.70544H10.8179C11.1509 3.70583 11.4701 3.84186 11.7056 4.08367C11.941 4.32549 12.0735 4.65335 12.0738 4.99534V10.9794C12.0735 11.3213 11.941 11.6492 11.7056 11.891C11.4701 12.1329 11.1509 12.2689 10.8179 12.2693V12.2693ZM11.3707 4.99534C11.3706 4.8448 11.3123 4.70048 11.2086 4.59403C11.105 4.48759 10.9644 4.42772 10.8179 4.42755H5.28075C5.13417 4.42772 4.99365 4.48759 4.89 4.59403C4.78635 4.70048 4.72805 4.8448 4.72789 4.99534V10.9794C4.72805 11.1299 4.78635 11.2742 4.89 11.3807C4.99364 11.4871 5.13417 11.547 5.28075 11.5472H10.8179C10.9644 11.547 11.105 11.4871 11.2086 11.3807C11.3123 11.2742 11.3706 11.1299 11.3707 10.9794V4.99534Z" fill="#7147E8" stroke="#7147E8" stroke-width="0.35"/>
</svg>
