<svg width="16" height="16" viewBox="0 0 16 16" fill="none" xmlns="http://www.w3.org/2000/svg">
<g clip-path="url(#clip0_12119_21193)">
<path d="M2.53649 12.0954C2.89184 12.0954 3.17991 11.8074 3.17991 11.452C3.17991 11.0967 2.89184 10.8086 2.53649 10.8086C2.18114 10.8086 1.89307 11.0967 1.89307 11.452C1.89307 11.8074 2.18114 12.0954 2.53649 12.0954Z" fill="#7147E8"/>
<path d="M13.4638 0.0180664C12.4381 0.0180664 11.5534 0.630395 11.1541 1.50835C10.288 1.17632 9.12454 0.876218 8.1891 0.876218C6.24137 0.876218 4.41017 1.63472 3.03292 3.01195C1.8658 4.17907 1.14326 5.67216 0.949857 7.28591C0.948623 7.29543 0.947326 7.30495 0.946694 7.3146C0.914111 7.59589 0.897156 7.88068 0.897156 8.16814C0.897156 8.52148 0.947421 9.02537 1.00604 9.43132C0.395323 9.89491 0 10.6282 0 11.4523C0 11.8822 0.1098 12.3062 0.317916 12.6813C0.322661 12.6915 0.327817 12.7015 0.333385 12.7113L2.03814 15.7425C2.11944 15.887 2.27093 15.9779 2.43669 15.9815C2.44011 15.9816 2.44349 15.9817 2.44691 15.9817C2.60881 15.9817 2.75957 15.8981 2.84524 15.7601L3.90122 14.0599C5.1597 14.9545 6.69468 15.4601 8.18907 15.4601C10.1368 15.4601 11.968 14.7016 13.3452 13.3244C14.7225 11.9471 15.481 10.1159 15.481 8.1682C15.481 7.11629 15.1515 5.93975 14.8337 5.15382L15.5857 3.94317C15.6129 3.89949 15.6239 3.88212 15.6296 3.87298C15.6383 3.85922 15.6383 3.85925 15.6498 3.84008L15.6566 3.82882C15.6617 3.82031 15.6666 3.81164 15.6711 3.80288C15.8863 3.42303 16 2.9918 16 2.55437C16 1.15583 14.8623 0.0180664 13.4638 0.0180664V0.0180664ZM8.18907 1.81415C8.40703 1.81415 8.64516 1.83468 8.89222 1.87052C8.83658 2.91759 8.16576 3.84742 7.0763 4.35128C6.95727 4.40632 6.83077 4.45617 6.69683 4.50894C6.29853 4.66587 5.84712 4.84375 5.5051 5.21459C5.3148 5.42099 5.18826 5.65695 5.07663 5.86516C4.99277 6.02152 4.91359 6.16919 4.81945 6.28414C4.63348 6.51133 4.32878 6.67725 3.96152 6.75131C3.51776 6.84086 3.15357 6.84978 2.84799 6.77857C2.4979 6.69702 2.22737 6.67725 2.00844 6.69225C2.67568 3.8981 5.19342 1.81415 8.18907 1.81415V1.81415ZM2.4669 14.5916L1.16813 12.2822C1.16262 12.2705 1.15658 12.259 1.1501 12.2476C1.01129 12.0063 0.9379 11.7313 0.9379 11.4523C0.9379 10.571 1.65493 9.85395 2.53627 9.85395C3.41761 9.85395 4.13465 10.571 4.13465 11.4523C4.13465 11.7324 4.06078 12.0082 3.921 12.2502C3.91929 12.2532 3.91761 12.2561 3.91597 12.2592C3.91293 12.2642 3.91223 12.2653 3.90882 12.2708C3.90274 12.2804 3.89117 12.2988 3.862 12.3456L2.4669 14.5916ZM8.18907 14.5222C7.56507 14.5222 6.9324 14.4203 6.32144 14.2283C6.79116 13.7376 7.16314 13.0953 7.28015 12.5188C7.42674 11.7965 7.39017 11.0738 7.35477 10.3749L7.3474 10.2281C7.32488 9.77129 7.31552 9.3642 7.42974 9.00838C7.5372 8.67357 7.76886 8.41851 8.01999 8.3586C8.30678 8.29021 8.65367 8.44006 9.02097 8.59873C9.11698 8.6402 9.21627 8.6831 9.31646 8.72289C10.5445 9.21043 11.8666 9.15519 13.0093 9.0652C13.067 9.06064 13.1247 9.05596 13.1825 9.05131C13.6349 9.01465 14.0687 8.97966 14.4882 9.00323C14.0781 12.1136 11.4097 14.5222 8.18907 14.5222V14.5222ZM14.5418 8.0671C14.0556 8.03983 13.5753 8.07842 13.1067 8.11638C13.0496 8.12097 12.9926 8.12562 12.9356 8.13008C11.8979 8.21185 10.7037 8.26446 9.6625 7.85107C9.57541 7.8165 9.48677 7.77819 9.39298 7.73764C8.92401 7.53506 8.39254 7.3054 7.80229 7.44623C7.23033 7.5827 6.74536 8.07143 6.5367 8.72169C6.37452 9.227 6.38451 9.7444 6.41061 10.2742L6.41804 10.4223C6.45196 11.0926 6.48403 11.7258 6.36095 12.3322C6.25855 12.8368 5.82128 13.4804 5.35636 13.8405C5.02184 13.675 4.70006 13.4814 4.39702 13.2616L4.65815 12.8411C4.68535 12.7975 4.69633 12.7801 4.70209 12.771C4.71079 12.7572 4.71082 12.7572 4.72218 12.7383L4.72904 12.7269C4.7342 12.7183 4.73907 12.7096 4.74365 12.7008C4.95889 12.3209 5.07252 11.8897 5.07252 11.4523C5.07252 10.0538 3.93472 8.91598 2.53624 8.91598C2.31493 8.91598 2.10024 8.94464 1.89544 8.99813C1.86052 8.7004 1.83502 8.38821 1.83502 8.16807C1.83502 8.00216 1.84148 7.83769 1.85404 7.67497C1.99525 7.6217 2.19359 7.58912 2.63522 7.69205C3.07426 7.79429 3.56876 7.7873 4.14695 7.6707C4.72591 7.55394 5.22243 7.2725 5.54518 6.87822C5.69705 6.69269 5.80657 6.4885 5.90321 6.30831C5.99672 6.13388 6.08507 5.96914 6.19462 5.85035C6.3909 5.63752 6.70651 5.51317 7.04065 5.38152C7.18114 5.32616 7.32637 5.2689 7.47001 5.20247C8.21245 4.85912 8.82576 4.3391 9.24367 3.69855C9.57016 3.19811 9.76432 2.64143 9.81835 2.0626C10.2136 2.1668 10.5983 2.29453 10.9306 2.42777C10.9286 2.46969 10.9274 2.51186 10.9274 2.55428C10.9274 2.98414 11.0372 3.40819 11.2453 3.7833C11.2501 3.79342 11.2552 3.80342 11.2608 3.81326L12.9656 6.84447C13.0469 6.98897 13.1984 7.07982 13.3641 7.08346C13.3675 7.08355 13.3709 7.08358 13.3743 7.08358C13.5362 7.08358 13.687 6.99998 13.7727 6.86205L14.2003 6.17346C14.3857 6.77569 14.5273 7.46113 14.5418 8.0671V8.0671ZM14.8485 3.35217C14.8468 3.35517 14.845 3.35818 14.8434 3.36125C14.8404 3.36615 14.8397 3.36729 14.8363 3.37267C14.8303 3.38228 14.8187 3.40069 14.7895 3.44754L13.9132 4.85827C13.9105 4.86238 13.908 4.86652 13.9055 4.8707L13.3944 5.69358L12.0956 3.38421C12.0901 3.37248 12.0841 3.36093 12.0775 3.3496C11.9388 3.1083 11.8654 2.83335 11.8654 2.55434C11.8654 1.673 12.5824 0.955966 13.4638 0.955966C14.3451 0.955966 15.0621 1.673 15.0621 2.55434C15.0621 2.83439 14.9882 3.11027 14.8485 3.35217V3.35217Z" fill="#7147E8"/>
<path d="M13.4637 3.19749C13.8191 3.19749 14.1072 2.90942 14.1072 2.55407C14.1072 2.19872 13.8191 1.91064 13.4637 1.91064C13.1084 1.91064 12.8203 2.19872 12.8203 2.55407C12.8203 2.90942 13.1084 3.19749 13.4637 3.19749Z" fill="#7147E8"/>
</g>
<defs>
<clipPath id="clip0_12119_21193">
<rect width="16" height="16" fill="white"/>
</clipPath>
</defs>
</svg>
