<svg width="124" height="50" viewBox="0 0 124 50" fill="none" xmlns="http://www.w3.org/2000/svg">
<path d="M0.00064099 10.3105H0V38.9512H0.000640991C0.0885802 44.5627 9.21377 49.0981 20.4576 49.0981C31.7014 49.0981 40.8266 44.5627 40.9145 38.9512H40.9152V10.3105H40.9145C40.8266 15.9221 31.7014 20.4575 20.4576 20.4575C9.21377 20.4575 0.0885802 15.9221 0.00064099 10.3105Z" fill="url(#paint0_linear_9701_10196)"/>
<path fill-rule="evenodd" clip-rule="evenodd" d="M20.4576 20.4576C31.756 20.4576 40.9152 15.878 40.9152 10.2288C40.9152 4.57958 31.756 0 20.4576 0C9.15917 0 0 4.57958 0 10.2288C0 15.878 9.15917 20.4576 20.4576 20.4576ZM20.5394 15.4659C26.1886 15.4659 30.7682 13.1761 30.7682 10.3515C30.7682 7.52693 26.1886 5.23714 20.5394 5.23714C14.8902 5.23714 10.3106 7.52693 10.3106 10.3515C10.3106 13.1761 14.8902 15.4659 20.5394 15.4659Z" fill="#8D6AF1"/>
<path d="M13.9113 34.6734V42.1027C13.9113 42.5215 13.4588 42.7841 13.0951 42.5763L7.31247 39.2719C7.1425 39.1748 7.0376 38.994 7.0376 38.7983V22.7365C7.0376 22.3111 7.50277 22.0494 7.86633 22.2702L20.0961 29.6981C20.2684 29.8027 20.4842 29.8039 20.6575 29.7011L33.2179 22.2552C33.5815 22.0396 34.0416 22.3017 34.0416 22.7244V39.1121C34.0416 39.315 33.929 39.5012 33.7492 39.5954L27.9665 42.6244C27.6033 42.8146 27.1679 42.5512 27.1679 42.1411V34.6499C27.1679 34.232 26.7172 33.9693 26.3535 34.1752L20.6515 37.404C20.4811 37.5005 20.2721 37.4983 20.1038 37.3982L14.7358 34.2046C14.3722 33.9882 13.9113 34.2503 13.9113 34.6734Z" fill="white"/>
<path d="M57.8269 15.0938C57.8269 11.9013 55.4134 9.64063 52.3737 9.64063C49.3645 9.64063 46.9052 11.9013 46.9052 15.0938C46.9052 18.3015 49.3645 20.5622 52.3737 20.5622C55.3981 20.5622 57.8269 18.3015 57.8269 15.0938ZM49.1048 15.0938C49.1048 12.9248 50.4338 11.5653 52.3737 11.5653C54.2983 11.5653 55.6273 12.9248 55.6273 15.0938C55.6273 17.2628 54.2983 18.6529 52.3737 18.6529C50.4338 18.6529 49.1048 17.2628 49.1048 15.0938ZM61.5563 13.215V11.993H59.4178V24.4879H61.5563V19.2486C62.0757 19.936 63.0227 20.5928 64.3517 20.5928C66.5207 20.5928 68.2162 18.8362 68.2162 16.1936C68.2162 13.551 66.5207 11.8555 64.3517 11.8555C63.038 11.8555 62.0604 12.4971 61.5563 13.215ZM66.0319 16.1936C66.0319 17.7975 64.9474 18.714 63.7865 18.714C62.6409 18.714 61.5563 17.828 61.5563 16.2241C61.5563 14.6203 62.6409 13.7343 63.7865 13.7343C64.9474 13.7343 66.0319 14.5897 66.0319 16.1936ZM73.4057 13.6121C74.5055 13.6121 75.3914 14.3148 75.422 15.4298H71.4046C71.5727 14.2689 72.3822 13.6121 73.4057 13.6121ZM77.423 17.7975H75.1165C74.8415 18.3626 74.3374 18.8209 73.4209 18.8209C72.3517 18.8209 71.4963 18.1182 71.3894 16.8657H77.5757C77.6216 16.5907 77.6368 16.3158 77.6368 16.0408C77.6368 13.5205 75.9108 11.8555 73.4668 11.8555C70.9617 11.8555 69.2203 13.551 69.2203 16.2241C69.2203 18.882 71.0075 20.5928 73.4668 20.5928C75.5594 20.5928 76.9647 19.3555 77.423 17.7975ZM85.1245 20.4553H87.263V15.4909C87.263 13.1539 85.8577 11.8708 83.8872 11.8708C82.8027 11.8708 81.8862 12.329 81.3363 13.047V11.993H79.1978V20.4553H81.3363V15.7812C81.3363 14.4217 82.0847 13.6885 83.2456 13.6885C84.376 13.6885 85.1245 14.4217 85.1245 15.7812V20.4553Z" fill="#8D6AF1"/>
<path d="M47.4246 40.4553H49.5631V33.5205L52.4348 40.4553H54.0539L56.9104 33.5205V40.4553H59.0489V29.7934H56.6354L53.2444 37.7211L49.8533 29.7934H47.4246V40.4553ZM64.7986 33.6121C65.8984 33.6121 66.7843 34.3148 66.8149 35.4298H62.7975C62.9656 34.2689 63.7751 33.6121 64.7986 33.6121ZM68.8159 37.7975H66.5094C66.2344 38.3626 65.7303 38.8209 64.8138 38.8209C63.7446 38.8209 62.8892 38.1182 62.7823 36.8657H68.9686C69.0145 36.5907 69.0297 36.3158 69.0297 36.0408C69.0297 33.5205 67.3037 31.8555 64.8597 31.8555C62.3546 31.8555 60.6132 33.551 60.6132 36.2241C60.6132 38.882 62.4004 40.5928 64.8597 40.5928C66.9523 40.5928 68.3576 39.3555 68.8159 37.7975ZM70.9267 37.828C70.9267 39.7679 72.0112 40.4553 73.6304 40.4553H74.9746V38.6529H73.9817C73.3096 38.6529 73.0805 38.4085 73.0805 37.8433V33.7496H74.9746V31.993H73.0805V29.9003H70.9267V31.993H69.9186V33.7496H70.9267V37.828ZM75.9628 36.1936C75.9628 38.8362 77.6736 40.5928 79.8121 40.5928C81.1563 40.5928 82.1186 39.9512 82.6227 39.218V40.4553H84.7765V31.993H82.6227V33.1997C82.1186 32.4971 81.1868 31.8555 79.8274 31.8555C77.6736 31.8555 75.9628 33.551 75.9628 36.1936ZM82.6227 36.2241C82.6227 37.828 81.5534 38.714 80.3773 38.714C79.2317 38.714 78.1471 37.7975 78.1471 36.1936C78.1471 34.5897 79.2317 33.7343 80.3773 33.7343C81.5534 33.7343 82.6227 34.6203 82.6227 36.2241ZM86.3152 36.1936C86.3152 38.8362 88.026 40.5928 90.1798 40.5928C91.5087 40.5928 92.4557 39.9818 92.9598 39.2028V40.4553H95.1289V29.1518H92.9598V33.1692C92.3794 32.3749 91.3101 31.8555 90.195 31.8555C88.026 31.8555 86.3152 33.551 86.3152 36.1936ZM92.9751 36.2241C92.9751 37.828 91.9058 38.714 90.7297 38.714C89.584 38.714 88.4995 37.7975 88.4995 36.1936C88.4995 34.5897 89.584 33.7343 90.7297 33.7343C91.9058 33.7343 92.9751 34.6203 92.9751 36.2241ZM96.6676 36.1936C96.6676 38.8362 98.3784 40.5928 100.517 40.5928C101.861 40.5928 102.823 39.9512 103.327 39.218V40.4553H105.481V31.993H103.327V33.1997C102.823 32.4971 101.892 31.8555 100.532 31.8555C98.3784 31.8555 96.6676 33.551 96.6676 36.1936ZM103.327 36.2241C103.327 37.828 102.258 38.714 101.082 38.714C99.9364 38.714 98.8519 37.7975 98.8519 36.1936C98.8519 34.5897 99.9364 33.7343 101.082 33.7343C102.258 33.7343 103.327 34.6203 103.327 36.2241ZM107.906 37.828C107.906 39.7679 108.99 40.4553 110.61 40.4553H111.954V38.6529H110.961C110.289 38.6529 110.06 38.4085 110.06 37.8433V33.7496H111.954V31.993H110.06V29.9003H107.906V31.993H106.898V33.7496H107.906V37.828ZM112.942 36.1936C112.942 38.8362 114.653 40.5928 116.791 40.5928C118.136 40.5928 119.098 39.9512 119.602 39.218V40.4553H121.756V31.993H119.602V33.1997C119.098 32.4971 118.166 31.8555 116.807 31.8555C114.653 31.8555 112.942 33.551 112.942 36.1936ZM119.602 36.2241C119.602 37.828 118.533 38.714 117.356 38.714C116.211 38.714 115.126 37.7975 115.126 36.1936C115.126 34.5897 116.211 33.7343 117.356 33.7343C118.533 33.7343 119.602 34.6203 119.602 36.2241Z" fill="#7147E8"/>
<defs>
<linearGradient id="paint0_linear_9701_10196" x1="20.4576" y1="14.7294" x2="20.4576" y2="49.0981" gradientUnits="userSpaceOnUse">
<stop stop-color="#35198E"/>
<stop offset="1" stop-color="#8D6AF1"/>
</linearGradient>
</defs>
</svg>
