<svg width="16" height="16" viewBox="0 0 16 16" fill="none" xmlns="http://www.w3.org/2000/svg">
<path d="M14.7725 1.08123C14.7027 1.03579 14.6226 1.00851 14.5396 1.00187C14.4565 0.995235 14.3731 1.00945 14.297 1.04323L10.3115 2.81473L5.8645 1.03573C5.80245 1.01092 5.73605 0.998805 5.66924 1.00009C5.60243 1.00138 5.53655 1.01605 5.4755 1.04323L1.297 2.90023C1.20859 2.93951 1.13347 3.00359 1.08076 3.08471C1.02804 3.16582 0.999988 3.26049 1 3.35723V14.5002C0.999989 14.5835 1.02079 14.6655 1.06052 14.7387C1.10025 14.812 1.15764 14.8741 1.22748 14.9195C1.29733 14.9649 1.37741 14.9921 1.46045 14.9987C1.5435 15.0053 1.62687 14.9911 1.703 14.9572L5.6885 13.1857L10.1355 14.9647C10.1976 14.9893 10.264 15.0013 10.3308 15C10.3975 14.9987 10.4634 14.9842 10.5245 14.9572L14.703 13.1002C14.7914 13.061 14.8665 12.9969 14.9192 12.9158C14.972 12.8346 15 12.74 15 12.6432V1.50023C15 1.41697 14.9791 1.33504 14.9394 1.26187C14.8997 1.1887 14.8423 1.12661 14.7725 1.08123ZM6.1785 2.23873L9.8215 3.69623V13.7617L6.1785 12.3042V2.23873ZM2 3.68223L5.1785 2.26973V12.3197L2 13.7307V3.68223ZM14 12.3182L10.8215 13.7307V3.68223L14 2.26973V12.3182Z" fill="#7147E8"/>
</svg>
