<svg width="18" height="18" viewBox="0 0 18 18" fill="none" xmlns="http://www.w3.org/2000/svg">
<path d="M9.57602 2.59054C10.1423 2.02428 11.0826 1.98937 11.6973 2.59054L15.4096 6.30285C15.9954 6.88864 15.9954 7.83839 15.4096 8.42417C14.8434 8.99043 13.9031 9.03202 13.2883 8.42417L13.0232 8.15887L10.8096 10.3725C11.4774 12.1799 11.0303 14.4103 9.57602 15.8488C9.41903 16.0041 9.17742 15.9839 9.04569 15.8488L5.86356 12.6666L3.47722 15.0533C3.33077 15.1997 3.09334 15.1997 2.94689 15.0533C2.81171 14.9181 2.78795 14.6832 2.94689 14.523L5.33331 12.1363L2.15139 8.9545C2.01621 8.81932 1.9902 8.58537 2.15139 8.42417C3.57027 7.0053 5.7254 6.49746 7.62732 7.19025L9.84094 4.97662L9.57602 4.71186C8.97157 4.1043 9.00976 3.1568 9.57602 2.59054V2.59054ZM11.167 3.12087C10.8741 2.82798 10.3992 2.82798 10.1063 3.12087C9.82887 3.39835 9.80252 3.86871 10.1063 4.18153L10.6367 4.71186C10.7719 4.84704 10.7909 5.08752 10.6367 5.24218L7.98612 7.89291C7.8791 7.99994 7.71823 8.03213 7.57826 7.97454C6.10311 7.3676 4.32051 7.5426 2.95781 8.70037L9.29944 15.042C10.4017 13.7667 10.6367 11.8473 10.0258 10.4222C9.95489 10.2569 10.0258 10.0954 10.1063 10.0144L12.758 7.36353C12.8932 7.22833 13.1256 7.20571 13.2883 7.36353L13.8187 7.89384C14.1116 8.18674 14.5864 8.18674 14.8793 7.89384C15.1568 7.61637 15.1865 7.14801 14.8793 6.83318L11.167 3.12087Z" fill="white" stroke="white" stroke-width="0.5"/>
</svg>
