
<svg width="16" height="16" viewBox="0 0 16 16" fill="none" xmlns="http://www.w3.org/2000/svg">
<path d="M8 0C3.59503 0 0 3.59528 0 8C0 12.405 3.59528 16 8 16C12.405 16 16 12.4047 16 8C16 3.59503 12.4047 0 8 0ZM8 15.0625C4.10572 15.0625 0.9375 11.8943 0.9375 8C0.9375 4.10572 4.10572 0.9375 8 0.9375C11.8943 0.9375 15.0625 4.10572 15.0625 8C15.0625 11.8943 11.8943 15.0625 8 15.0625Z" fill="#7147E8"/>
<path d="M4.02246 12.4463C4.28134 12.4463 4.49121 12.2364 4.49121 11.9775C4.49121 11.7187 4.28134 11.5088 4.02246 11.5088C3.76358 11.5088 3.55371 11.7187 3.55371 11.9775C3.55371 12.2364 3.76358 12.4463 4.02246 12.4463Z" fill="#7147E8"/>
<path d="M11.9775 4.49121C12.2364 4.49121 12.4463 4.28134 12.4463 4.02246C12.4463 3.76358 12.2364 3.55371 11.9775 3.55371C11.7187 3.55371 11.5088 3.76358 11.5088 4.02246C11.5088 4.28134 11.7187 4.49121 11.9775 4.49121Z" fill="#7147E8"/>
<path d="M3.69101 3.69101C3.50795 3.87407 3.50795 4.17085 3.69101 4.35391C3.87407 4.53698 4.17085 4.53698 4.35391 4.35391C4.53698 4.17085 4.53698 3.87407 4.35391 3.69101C4.17088 3.50795 3.87407 3.50795 3.69101 3.69101Z" fill="#7147E8"/>
<path d="M11.6461 11.6461C11.463 11.8291 11.463 12.1259 11.6461 12.309C11.8291 12.4921 12.1259 12.4921 12.309 12.309C12.4921 12.1259 12.4921 11.8291 12.309 11.6461C12.1259 11.463 11.8291 11.463 11.6461 11.6461Z" fill="#7147E8"/>
<path d="M8 3.78125C8.25888 3.78125 8.46875 3.57138 8.46875 3.3125V2.375C8.46875 2.11612 8.25888 1.90625 8 1.90625C7.74112 1.90625 7.53125 2.11612 7.53125 2.375V3.3125C7.53125 3.57138 7.74112 3.78125 8 3.78125Z" fill="#7147E8"/>
<path d="M8 12.2188C7.74112 12.2188 7.53125 12.4286 7.53125 12.6875V13.625C7.53125 13.8839 7.74112 14.0938 8 14.0938C8.25888 14.0938 8.46875 13.8839 8.46875 13.625V12.6875C8.46875 12.4286 8.25888 12.2188 8 12.2188Z" fill="#7147E8"/>
<path d="M3.78125 8C3.78125 7.74112 3.57138 7.53125 3.3125 7.53125H2.375C2.11612 7.53125 1.90625 7.74112 1.90625 8C1.90625 8.25888 2.11612 8.46875 2.375 8.46875H3.3125C3.57138 8.46875 3.78125 8.25888 3.78125 8Z" fill="#7147E8"/>
<path d="M12.2188 8C12.2188 8.25888 12.4286 8.46875 12.6875 8.46875H13.625C13.8839 8.46875 14.0938 8.25888 14.0938 8C14.0938 7.74112 13.8839 7.53125 13.625 7.53125H12.6875C12.4286 7.53125 12.2188 7.74112 12.2188 8Z" fill="#7147E8"/>
<path d="M8.46875 7.80584V5.1875C8.46875 4.92862 8.25888 4.71875 8 4.71875C7.74112 4.71875 7.53125 4.92862 7.53125 5.1875V8C7.53125 8.12431 7.58066 8.24353 7.66856 8.33147L10.4811 11.144C10.6641 11.327 10.9609 11.327 11.144 11.144C11.327 10.9609 11.327 10.6641 11.144 10.4811L8.46875 7.80584Z" fill="#7147E8"/>
</svg>
