<svg width="36" height="36" viewBox="0 0 16 16" fill="none" xmlns="http://www.w3.org/2000/svg">
<path d="M14.0243 7.35938C14.5012 4.75787 12.497 2.375 9.875 2.375C8.35984 2.375 7.00397 3.17878 6.25681 4.42294C5.23769 4.09362 4.18981 4.23397 3.3265 4.82828C2.46366 5.42225 1.94834 6.36269 1.90663 7.39128C0.753688 7.93444 0 9.08244 0 10.3438C0 10.5598 0.0211875 10.7759 0.0629375 10.9861C0.366656 12.5152 1.72012 13.625 3.28125 13.625H12.6875C14.514 13.625 16 12.153 16 10.3438C16 9.05269 15.2167 7.88728 14.0243 7.35938ZM12.6875 12.6875H3.28125C2 12.6875 0.9375 11.6489 0.9375 10.3438C0.9375 9.36719 1.57928 8.48375 2.5345 8.14547L2.86731 8.02759L2.84591 7.67516C2.79556 6.84703 3.17397 6.07144 3.85812 5.60047C4.58159 5.10241 5.46913 5.068 6.28153 5.43638L6.70378 5.62784L6.89988 5.20772C7.43725 4.05644 8.60506 3.3125 9.875 3.3125C11.6843 3.3125 13.1562 4.78447 13.1562 6.59375C13.1562 7.12894 13.0433 7.45297 12.9185 7.882C13.268 8.06344 13.3246 8.09706 13.4423 8.13737C14.4114 8.46931 15.0625 9.356 15.0625 10.3438C15.0625 11.6361 13.9971 12.6875 12.6875 12.6875Z" fill="#7147E8"/>
</svg>
