<svg width="16" height="16" viewBox="0 0 16 16" fill="none" xmlns="http://www.w3.org/2000/svg">
<path d="M5.23344 9.57858C4.83797 9.4327 4.47072 9.27358 4.3716 9.23008C4.28447 9.16458 4.24235 9.06108 4.25844 8.9492C4.27929 8.80408 4.39222 8.68714 4.56063 8.63642C5.00888 8.50133 5.36522 8.72704 5.43588 8.79108C5.52588 8.9167 5.6971 8.95917 5.8371 8.88433C5.98929 8.80295 6.04669 8.61358 5.96532 8.46139C5.85107 8.2477 5.19063 7.79392 4.38035 8.03798C3.97904 8.15889 3.69525 8.47401 3.63982 8.86039C3.58804 9.22108 3.74429 9.56801 4.04757 9.76576C4.06138 9.77476 4.07588 9.78267 4.09094 9.78939C4.10888 9.79739 4.53597 9.98748 5.01719 10.165C5.34466 10.2858 5.51166 10.4719 5.47529 10.6755C5.43857 10.8811 5.19635 11.0937 4.85457 11.0937C4.52322 11.0937 4.20363 10.9593 3.99963 10.7342C3.88369 10.6063 3.6861 10.5966 3.55822 10.7125C3.43032 10.8284 3.42063 11.026 3.5365 11.1539C3.85694 11.5075 4.34966 11.7186 4.8545 11.7186C5.46413 11.7186 5.9955 11.3174 6.0905 10.7853C6.16263 10.3814 5.97535 9.8522 5.23344 9.57858V9.57858Z" fill="#7147E8"/>
<path d="M14.0938 6.33063V4.21875C14.0938 4.09444 14.0444 3.97522 13.9564 3.88731L10.2064 0.137313C10.1186 0.0494063 9.99934 0 9.875 0H3.3125C2.53709 0 1.90625 0.630844 1.90625 1.40625V6.33063C1.36066 6.52413 0.96875 7.04516 0.96875 7.65625V12.0312C0.96875 12.6423 1.36066 13.1634 1.90625 13.3569V14.5938C1.90625 15.3692 2.53709 16 3.3125 16H12.6875C13.4629 16 14.0938 15.3692 14.0938 14.5938V13.3569C14.6393 13.1634 15.0312 12.6423 15.0312 12.0312V7.65625C15.0312 7.04516 14.6393 6.52413 14.0938 6.33063V6.33063ZM10.3438 1.60041L12.4933 3.75H10.8125C10.554 3.75 10.3438 3.53972 10.3438 3.28125V1.60041ZM2.84375 1.40625C2.84375 1.14778 3.05403 0.9375 3.3125 0.9375H9.40625V3.28125C9.40625 4.05666 10.0371 4.6875 10.8125 4.6875H13.1562V6.25H2.84375V1.40625ZM13.1562 14.5938C13.1562 14.8522 12.946 15.0625 12.6875 15.0625H3.3125C3.05403 15.0625 2.84375 14.8522 2.84375 14.5938V13.4375H13.1562V14.5938ZM14.0938 12.0312C14.0938 12.2897 13.8835 12.5 13.625 12.5H2.375C2.11653 12.5 1.90625 12.2897 1.90625 12.0312V7.65625C1.90625 7.39778 2.11653 7.1875 2.375 7.1875H13.625C13.8835 7.1875 14.0938 7.39778 14.0938 7.65625V12.0312Z" fill="#7147E8"/>
<path d="M8 3.75H4.25C3.99112 3.75 3.78125 3.95987 3.78125 4.21875C3.78125 4.47763 3.99112 4.6875 4.25 4.6875H8C8.25888 4.6875 8.46875 4.47763 8.46875 4.21875C8.46875 3.95987 8.25888 3.75 8 3.75Z" fill="#7147E8"/>
<path d="M8 1.875H4.25C3.99112 1.875 3.78125 2.08487 3.78125 2.34375C3.78125 2.60263 3.99112 2.8125 4.25 2.8125H8C8.25888 2.8125 8.46875 2.60263 8.46875 2.34375C8.46875 2.08487 8.25888 1.875 8 1.875Z" fill="#7147E8"/>
<path d="M7.92753 7.96924H7.04297C6.87019 7.96924 6.73019 8.10943 6.73047 8.28221C6.73159 8.98858 6.73434 10.7 6.73563 11.4063C6.73594 11.5791 6.87644 11.7189 7.04925 11.7182C7.3555 11.7171 7.79828 11.7151 7.95888 11.7123C8.41563 11.7043 8.82225 11.4975 9.10381 11.13C9.36059 10.7949 9.50197 10.3383 9.50197 9.84421C9.502 8.72274 8.86928 7.96924 7.92753 7.96924V7.96924ZM7.94797 11.0874C7.81406 11.0897 7.56322 11.0916 7.36022 11.0927C7.35903 10.7245 7.35619 8.97618 7.35553 8.59424H7.92753C8.62756 8.59424 8.877 9.23996 8.877 9.84424C8.877 10.4351 8.58628 11.0762 7.94797 11.0874V11.0874Z" fill="#7147E8"/>
<path d="M10.9958 9.77941L12.3325 8.55075C12.4595 8.43397 12.4678 8.23628 12.3511 8.10922L12.351 8.10919C12.2343 7.98212 12.0366 7.97381 11.9095 8.09059L10.7524 9.15413V8.28125C10.7524 8.10866 10.6125 7.96875 10.4399 7.96875C10.2674 7.96875 10.1274 8.10866 10.1274 8.28125V11.4062C10.1274 11.5788 10.2674 11.7188 10.4399 11.7188C10.6125 11.7188 10.7524 11.5788 10.7524 11.4062V10.4132L12.0149 11.6312C12.1392 11.751 12.337 11.7474 12.4568 11.6232C12.5766 11.499 12.5731 11.3012 12.4488 11.1814L10.9958 9.77941Z" fill="#7147E8"/>
</svg>
