<svg width="13" height="12" viewBox="0 0 13 12" fill="none" xmlns="http://www.w3.org/2000/svg">
<path d="M11.8598 4.01933L8.44626 3.52017L6.92056 0.417433C6.6472 -0.135624 5.85514 -0.142654 5.57944 0.417433L4.05374 3.52017L0.640197 4.01933C0.0280484 4.10838 -0.217278 4.86532 0.226646 5.29886L2.69627 7.71263L2.11216 11.1224C2.00702 11.7387 2.65421 12.2004 3.19627 11.9121L6.25 10.3021L9.30373 11.9121C9.84579 12.198 10.493 11.7387 10.3878 11.1224L9.80373 7.71263L12.2734 5.29886C12.7173 4.86532 12.472 4.10838 11.8598 4.01933ZM8.60046 7.31892L9.1542 10.5623L6.25 9.03199L3.3458 10.5623L3.89954 7.31892L1.54907 5.02233L4.79673 4.54895L6.25 1.59619L7.70327 4.54895L10.9509 5.02233L8.60046 7.31892Z" fill="white"/>
</svg>
