<?xml version="1.0" encoding="utf-8"?>
<!-- Generator: Adobe Illustrator 26.3.1, SVG Export Plug-In . SVG Version: 6.00 Build 0)  -->
<svg version="1.1" id="Layer_1" xmlns="http://www.w3.org/2000/svg" xmlns:xlink="http://www.w3.org/1999/xlink" x="0px" y="0px"
	 viewBox="0 0 512 512" style="enable-background:new 0 0 512 512;" xml:space="preserve">
<style type="text/css">
	.st0{fill-rule:evenodd;clip-rule:evenodd;fill:#8D6AF1;}
	.st1{fill-rule:evenodd;clip-rule:evenodd;fill:url(#SVGID_1_);}
</style>
<path class="st0" d="M255.8,213.3c117.8,0,213.3-47.8,213.3-106.7C469.2,47.8,373.7,0,255.8,0C138,0,42.5,47.8,42.5,106.7
	C42.5,165.6,138,213.3,255.8,213.3z M256.7,161.3c58.9,0,106.7-23.9,106.7-53.3c0-29.5-47.8-53.3-106.7-53.3
	c-58.9,0-106.7,23.9-106.7,53.3C150,137.4,197.8,161.3,256.7,161.3z"/>
<linearGradient id="SVGID_1_" gradientUnits="userSpaceOnUse" x1="255.8304" y1="360.6835" x2="255.8304" y2="2.2835" gradientTransform="matrix(1 0 0 -1 0 514.2835)">
	<stop  offset="0" style="stop-color:#35198E"/>
	<stop  offset="1" style="stop-color:#8D6AF1"/>
</linearGradient>
<path class="st1" d="M42.5,107.5L42.5,107.5c0.9,58.5,96.1,105.8,213.3,105.8c117.3,0,212.4-47.3,213.3-105.8h0v298.7h0
	C468.2,464.7,373.1,512,255.8,512c-117.3,0-212.4-47.3-213.3-105.8h0V107.5z M187.6,447.1v-93.8c0-0.8,0.8-1.3,1.5-0.9l65.4,38.9
	c0.3,0.2,0.7,0.2,1,0l68.8-39c0.7-0.4,1.5,0.1,1.5,0.9v93.9c0,0.8,0.8,1.2,1.5,0.9l69.7-36.5c0.3-0.2,0.5-0.5,0.5-0.9v-182
	c0-0.8-0.8-1.3-1.5-0.9l-140.5,83.3c-0.3,0.2-0.7,0.2-1,0l-137.1-83.2c-0.7-0.4-1.5,0.1-1.5,0.9v178.5c0,0.4,0.2,0.7,0.5,0.9
	l69.7,39.8C186.7,448.4,187.6,447.9,187.6,447.1z"/>
</svg>
